<svg xmlns="http://www.w3.org/2000/svg" version="1.1" xmlns:xlink="http://www.w3.org/1999/xlink" xmlns:svgjs="http://svgjs.dev/svgjs" viewBox="0 0 800 800" opacity="0.11" width="800" height="800"><g stroke-width="0.75" stroke="hsla(0, 0%, 0%, 1.00)" fill="none"><line x1="0" y1="0" x2="160" y2="160"></line><line x1="160" y1="0" x2="320" y2="160"></line><line x1="320" y1="0" x2="480" y2="160"></line><line x1="480" y1="0" x2="640" y2="160"></line><line x1="640" y1="0" x2="800" y2="160"></line><line x1="800" y1="0" x2="960" y2="160"></line><line x1="0" y1="100" x2="160" y2="260"></line><line x1="160" y1="100" x2="320" y2="260"></line><line x1="320" y1="100" x2="480" y2="260"></line><line x1="480" y1="100" x2="640" y2="260"></line><line x1="640" y1="100" x2="800" y2="260"></line><line x1="800" y1="100" x2="960" y2="260"></line><line x1="0" y1="200" x2="160" y2="360"></line><line x1="160" y1="200" x2="320" y2="360"></line><line x1="320" y1="200" x2="480" y2="360"></line><line x1="480" y1="200" x2="640" y2="360"></line><line x1="640" y1="200" x2="800" y2="360"></line><line x1="800" y1="200" x2="960" y2="360"></line><line x1="0" y1="300" x2="160" y2="460"></line><line x1="160" y1="300" x2="320" y2="460"></line><line x1="320" y1="300" x2="480" y2="460"></line><line x1="480" y1="300" x2="640" y2="460"></line><line x1="640" y1="300" x2="800" y2="460"></line><line x1="800" y1="300" x2="960" y2="460"></line><line x1="0" y1="400" x2="160" y2="560"></line><line x1="160" y1="400" x2="320" y2="560"></line><line x1="320" y1="400" x2="480" y2="560"></line><line x1="480" y1="400" x2="640" y2="560"></line><line x1="640" y1="400" x2="800" y2="560"></line><line x1="800" y1="400" x2="960" y2="560"></line><line x1="0" y1="500" x2="160" y2="660"></line><line x1="160" y1="500" x2="320" y2="660"></line><line x1="320" y1="500" x2="480" y2="660"></line><line x1="480" y1="500" x2="640" y2="660"></line><line x1="640" y1="500" x2="800" y2="660"></line><line x1="800" y1="500" x2="960" y2="660"></line><line x1="0" y1="600" x2="160" y2="760"></line><line x1="160" y1="600" x2="320" y2="760"></line><line x1="320" y1="600" x2="480" y2="760"></line><line x1="480" y1="600" x2="640" y2="760"></line><line x1="640" y1="600" x2="800" y2="760"></line><line x1="800" y1="600" x2="960" y2="760"></line><line x1="0" y1="700" x2="160" y2="860"></line><line x1="160" y1="700" x2="320" y2="860"></line><line x1="320" y1="700" x2="480" y2="860"></line><line x1="480" y1="700" x2="640" y2="860"></line><line x1="640" y1="700" x2="800" y2="860"></line><line x1="800" y1="700" x2="960" y2="860"></line><line x1="0" y1="800" x2="160" y2="960"></line><line x1="160" y1="800" x2="320" y2="960"></line><line x1="320" y1="800" x2="480" y2="960"></line><line x1="480" y1="800" x2="640" y2="960"></line><line x1="640" y1="800" x2="800" y2="960"></line><line x1="800" y1="800" x2="960" y2="960"></line></g></svg>